{"asset":{"version":"2.0","generator":"Colav-Simulator illustrative hull"},"extensionsUsed":["KHR_materials_unlit"],"scene":0,"scenes":[{"nodes":[0]}],"nodes":[{"mesh":0}],"meshes":[{"primitives":[{"attributes":{"POSITION":0},"indices":1,"material":0}]}],"materials":[{"doubleSided":true,"extensions":{"KHR_materials_unlit":{}},"pbrMetallicRoughness":{"baseColorFactor":[0.88,0.91,0.94,1]}}],"buffers":[{"byteLength":384,"uri":"data:application/octet-stream;base64,"}],"bufferViews":[{"buffer":0,"byteOffset":0,"byteLength":216},{"buffer":0,"byteOffset":216,"byteLength":168}],"accessors":[{"bufferView":0,"componentType":5126,"count":18,"type":"VEC3","min":[-0.5,0,-0.5],"max":[0.5,1,0.5]},{"bufferView":1,"componentType":5123,"count":84,"type":"SCALAR"}]}
